# xmcd
#
# Track frame offsets: 
#        150
#        14108
#        46423
#        70061
#        99861
#        129318
#        155403
#        178678
#        199641
#        235538
#        268826
#
# Disc length: 4800 seconds
#
# Revision: 0
# Processed by: cddbd v1.5.2PL0 Copyright (c) Steve Scherf et al.
# Submitted via: ExactAudioCopy v0.95b3
#
DISCID=8d12be0b
DTITLE=Chicago  - Japan 1973  FLAC
DYEAR=1900
DGENRE=
TTITLE0=Magical Mystery Tour
TTITLE1=State of the Union
TTITLE2=Just You N Me
TTITLE3=Aire
TTITLE4=Beginnings
TTITLE5=Rediscovery
TTITLE6=Now That You_ve Gone
TTITLE7=Saturday in the Park
TTITLE8=Dialogue
TTITLE9=25 Or 6 To 4
TTITLE10=Ballet for a Girl in Buchanon (Make me Smile, etc.)
EXTD=
EXTT0=
EXTT1=
EXTT2=
EXTT3=
EXTT4=
EXTT5=
EXTT6=
EXTT7=
EXTT8=
EXTT9=
EXTT10=
PLAYORDER=
